PathFileType	4	(X/Y/Z)	Patient4_TMGait_0pt6_02_right_14.trc.trc
DataRate	CameraRate	NumFrames	NumMarkers	Units	OrigDataRate	OrigDataStartFrame	OrigNumFrames
82.352941176471	82.352941176471	5	33	mm	82.352941176471	89	       141
Frame#	Time	Sacral			L.Shoulder			Chest			R.Shoulder			Neck			R.ASIS			L.ASIS			R.Thigh.Superior			R.Thigh.Lateral			R.Thigh.Inferior			R.Patella			L.Thigh.Superior			L.Thigh.Lateral			L.Thigh.Inferior			L.Patella			L.Shank.Superior			L.Shank.Lateral			L.Shank.Inferior			R.Shank.Superior			R.Shank.Lateral			R.Shank.Inferior			R.Heel			R.Midfoot.Superior			R.Midfoot.Lateral			R.Toe			L.Heel			L.Midfoot.Lateral			L.Midfoot.Superior			L.Toe			L.Elbow			L.Wrist			R.Elbow			R.Wrist			
		X1	Y1	Z1	X2	Y2	Z2	X3	Y3	Z3	X4	Y4	Z4	X5	Y5	Z5	X6	Y6	Z6	X7	Y7	Z7	X8	Y8	Z8	X9	Y9	Z9	X10	Y10	Z10	X11	Y11	Z11	X12	Y12	Z12	X13	Y13	Z13	X14	Y14	Z14	X15	Y15	Z15	X16	Y16	Z16	X17	Y17	Z17	X18	Y18	Z18	X19	Y19	Z19	X20	Y20	Z20	X21	Y21	Z21	X22	Y22	Z22	X23	Y23	Z23	X24	Y24	Z24	X25	Y25	Z25	X26	Y26	Z26	X27	Y27	Z27	X28	Y28	Z28	X29	Y29	Z29	X30	Y30	Z30	X31	Y31	Z31	X32	Y32	Z32	X33	Y33	Z33	

89	17.688571428571	768.373180059692	1010.017500185666	479.702125054937	929.817196635834	1436.432632254082	290.039435876481	1046.130617694970	1366.972313204027	441.043720052937	976.858284859526	1443.720057785292	619.187428217148	939.619276898963	1496.558487730694	440.297592787891	996.722036751421	941.859249225638	586.091003185588	974.765320929287	961.315364061104	313.047960483605	1028.183821359181	734.705478028467	567.748013053860	944.178875563499	628.775989886977	632.321791965178	1022.867659983608	567.108113180478	558.395876803330	1011.005276271864	459.113819070131	577.633790410447	1038.954183127029	761.541354642378	346.586792849217	960.531407455314	637.030662466363	290.305963361281	1053.131741497916	567.253008425335	352.923425951238	1060.130199745066	497.086480546736	363.073393805716	1036.377815053628	423.757257822479	356.114329400755	952.285557136414	304.409469451886	308.214748566106	1011.209564622375	196.658512153134	378.243371993130	934.449238465054	392.600516953439	582.399476832761	815.519267104506	348.587984156283	642.830816485118	802.801561675473	240.592918860287	589.901809563494	601.417631007081	167.239950565474	563.070489831041	772.788769062228	118.752794193518	597.970220577176	665.133419389016	109.026178746563	632.114367146561	845.359675351212	31.770287132425	616.533370567414	891.792955677699	37.794995255551	422.845961745548	964.007658525027	35.845216106663	340.576167297555	1047.106563304093	96.919427041585	365.953363600795	1175.473518581172	45.697741681086	334.840181175738	828.807947705703	1094.967073035786	185.513289050028	884.115910473405	838.639380235642	182.662232449856	1038.394212907536	1102.943581082642	737.375355924085	1270.445213741628	1074.607898524758	643.019571710333	
90	17.700714285714	767.733265268633	1009.690796591046	477.001210043026	930.380735098367	1436.679995749527	288.245333875311	1045.815518805252	1366.991764221913	439.870236576475	975.431145058252	1443.433477559693	617.740759532845	939.272997417117	1496.599707826918	438.674728540909	995.843878891226	941.902814837572	584.115778799654	974.835394484321	961.360802974934	311.077238695478	1032.915130376620	736.979177158300	565.635649448174	952.689073078082	629.235238229977	630.700482447636	1033.026622822767	569.206072983670	556.546056606457	1023.011277609506	459.999112736004	576.263969273843	1038.133702819582	760.617995081380	344.846430246450	959.068156952889	636.747275065089	288.804227743107	1050.740774481952	566.477550394916	352.027512579049	1057.109507374662	496.216861087422	362.324654142399	1032.749573623098	422.859943868745	355.463383256064	947.808987967783	304.131614503596	307.577403831853	1005.364313647818	196.073975830099	378.133977921213	944.701930172445	394.069107469489	581.275620175699	824.374131505916	353.903096414984	641.708366346243	808.578480139767	246.116771663632	589.600155621639	605.847700796130	182.711766039680	562.580859596178	773.463452098742	123.150106858771	598.002018165016	665.383476624734	120.492569826136	631.791567603976	839.314669337047	30.495417453165	616.903919836503	884.466068099300	37.757537782401	422.802133367854	956.681362929286	35.796474546067	340.529923692359	1039.902302373632	96.733928405923	366.054656655752	1168.257658700127	45.161022399439	334.842530073187	832.343822294467	1094.789199054945	181.357830552202	895.202677049208	840.117647072518	179.215656153606	1029.051616062694	1100.508144974400	735.463438879245	1261.794454773722	1054.869122373327	647.698990046373	
91	17.712857142857	767.000107142070	1009.263624304044	474.356224078872	930.843930872542	1436.821742244234	286.610387637161	1045.395920786766	1366.892662965242	438.854141632058	973.866642063078	1442.998527663059	616.463864264975	938.880137296863	1496.545272508306	437.223736098913	994.816650191000	941.847800814303	582.208733787154	974.853122160995	961.299526494661	309.214337071250	1037.526442496729	739.511508135485	563.404913603446	961.338310486605	630.020848363421	629.072456554248	1043.164355223398	571.784099658492	554.548348625871	1035.251100562647	461.446229852838	574.647584261093	1037.300882518885	759.763304869649	343.393767063261	957.784503789530	636.461190080962	287.358132680982	1048.505261884367	565.719519554647	351.232526086800	1054.265924267710	495.327133151753	361.630691086253	1029.258777548921	421.923771090367	354.856932214950	943.433629487439	303.856230802015	306.952624129587	999.574419908739	195.470416887476	378.024108249004	955.368390380943	395.944694595966	579.946338071793	833.824743035907	359.413474319179	640.392715267319	815.158389846962	251.910853390975	589.067388073149	611.705397131526	198.174467456945	561.662611425588	775.125127219990	128.067645111935	597.894586961978	666.877458650110	132.306050390478	631.166827454484	834.124496906607	29.360256155103	617.336106300240	877.160073930864	37.732232555819	422.739344892359	949.377126083856	35.761176191068	340.469937214125	1032.717240017794	96.570345709086	366.141429632982	1161.056526423424	44.656434530803	334.833189175101	836.222221254775	1094.480158884763	177.150896412105	906.696636453505	841.727936367660	175.858505809171	1019.633446098420	1098.019576158723	733.392711415891	1251.586372298784	1034.568294482499	652.699958299986	
92	17.725000000000	766.179495771846	1008.803560871001	471.765641747227	931.215538790718	1436.904775357078	285.140168098285	1044.884417993431	1366.723578901844	437.993153383027	972.192812405340	1442.467576085446	615.354560238287	938.457821207701	1496.439144567577	435.947064380044	993.655281073068	941.758150155293	580.384898516626	974.827817080708	961.181125167685	307.469576393087	1041.930122254590	742.330561658849	561.073478750761	969.971483029658	631.196038126415	627.453843898878	1053.129780918333	574.884972132743	552.455585261397	1047.574057436214	463.500237879959	572.875560552663	1036.452694371667	758.973511067464	342.136154863387	956.538127551473	636.163140578070	285.994505524654	1046.327631828386	564.957119974162	350.496039035345	1051.503156250101	494.423834114062	360.998528679027	1025.820864108407	420.969684929153	354.301971185716	939.088804106394	303.592779639710	306.359313666970	993.795246681032	194.863677495279	377.919932909095	966.314241111195	398.259166067954	578.478657123821	843.716609572438	365.052298796161	638.897991868651	822.501249474710	257.853078737072	588.317411197891	618.883770469540	213.091606073497	560.306792887273	777.935003516377	133.372074121838	597.637631296749	669.714866097524	144.028387516760	630.213790743638	830.226142028065	28.535787396689	617.764410373674	869.871162771628	37.720090062393	422.660228494734	942.090559945066	35.738718253622	340.398065223267	1025.543263237475	96.431237712553	366.209285357978	1153.862251754950	44.198830138074	334.807856488551	840.492743952970	1094.080711326193	172.951532618721	918.579650354399	843.512571641575	172.640327336082	1010.199478120733	1095.550066417786	731.209323132912	1239.693253387795	1013.883008086970	657.985492754990	
93	17.737142857143	765.273565687434	1008.374565194220	469.226708666956	931.521524184408	1436.975916835755	283.830913647173	1044.299344233660	1366.532264961722	437.283089616354	970.435389907181	1441.894181812627	614.403566199466	938.022800286198	1496.325232975981	434.835471163903	992.380630920852	941.702798042322	578.672121730932	974.767364061266	961.052234787092	305.854568471996	1046.060546477760	745.453979756542	558.684159515761	978.441824471726	632.803420244239	625.869637460156	1062.796257863706	578.528773041820	550.339332150946	1059.833743538400	466.189290785381	571.044606439057	1035.573278082518	758.230523297672	340.989933125263	955.195893201105	635.850373731327	284.733569078303	1044.100076608041	564.172205838502	349.791735526358	1048.706966810699	493.512565900477	360.436201137105	1022.338905710199	420.019732279543	353.803624568363	934.697659936871	303.347426412821	305.811765732755	987.978243343306	194.269488119957	377.827573094939	977.418644149914	401.024061673307	576.948522857218	853.908665794379	370.722165021919	637.252289387685	830.577713695974	263.786953175574	587.374891274446	627.236397573565	226.884594292064	558.546396588971	782.069753218386	138.873702626889	597.221145887661	673.990022790641	155.162592606744	628.933968881021	828.129997244240	28.178338000911	618.106590151413	862.592160146568	37.720893466518	422.569162974215	934.814816050450	35.727250411408	340.317761553359	1018.370960463415	96.315798803086	366.257170345028	1146.666046946901	43.795865445761	334.765899120696	845.179072114025	1093.641286705625	168.822093345235	930.829339533191	845.523052772857	169.612244950643	1000.809857594513	1093.179743121916	728.970698989257	1226.013143279039	993.035566769600	663.505892210282	
